%FSTAX24Y24*%
%MOIN*%
%IN ServoBoardSlim.GTL *%
%ADD10C,0.0100*%
%ADD11C,0.0550*%
%ADD12C,0.0600*%
%ADD13C,0.0700*%
%ADD14C,0.0750*%
%ADD15C,0.0800*%
%ADD16C,0.1000*%
%ADD17C,0.1200*%
%ADD18O,0.0800X0.1000*%
%ADD19O,0.0900X0.0700*%
%ADD20O,0.1200X0.0900*%
%ADD21R,0.0800X0.0800*%
%ADD22R,0.0800X0.1000*%
%ADD23R,0.1200X0.0900*%
%ADD24R,0.1200X0.1200*%
D14*X018358Y002055D03*Y003055D03*X02085Y0034D03*X01985D03*D19*
X0102Y00485D03*Y00585D03*D23*X0374Y01185D03*D20*Y01085D03*Y00985D03*
D22*X002Y01225D03*D18*X003D03*X004D03*X005D03*X006D03*X007D03*D24*
X003Y01025D03*D17*Y00825D03*D19*X00205Y00505D03*Y00605D03*D16*
X01605Y00775D03*X02005D03*D21*X007585Y009163D03*D12*X014569Y007802D03*
X014576Y008481D03*X014568Y009155D03*X014567Y009843D03*
X014566Y010502D03*D21*X033858Y012055D03*D15*X024858D03*X023858D03*
X022858D03*X021858D03*X020858D03*X019858D03*Y002055D03*X020858D03*
X021858D03*X022858D03*X032858Y012055D03*X023858Y002055D03*X024858D03*
X025858D03*X026858D03*X027858D03*X028858D03*X029858D03*X030858D03*
X031858D03*X032858D03*X031858Y012055D03*X033858Y002055D03*
X030858Y012055D03*X029858D03*X028858D03*X027858D03*X026858D03*
X025858D03*D17*X016Y0021D03*X001D03*D11*X0364Y00465D03*Y00565D03*
X0369Y00515D03*D14*X024108Y007805D03*Y009805D03*X03085Y0036D03*
X02885D03*X03535Y00885D03*Y01085D03*X0364Y00685D03*Y00885D03*
X031608Y005405D03*X033608D03*X031608Y004405D03*X033608D03*D15*
X00565Y00435D03*X005709Y009843D03*D13*X03165Y009D03*X03365D03*
X0327Y0105D03*X03265Y00665D03*X02905Y00585D03*X02715D03*X0038Y00675D03*
Y00505D03*D10*X00565Y00435D02*G01X005709Y009843D01*X03165Y009D02*
X03365D01*X0327Y0105D02*X03095Y00935D01*Y0072D01*X03265Y00665D01*
X02905Y00585D02*X02715D01*X0038Y00675D02*Y00505D01*
M02*