M48
FMAT,2
INCH,LZ
T1C0.0250
T2C0.0276
T3C0.0300
T4C0.0350
T5C0.0380
T6C0.0400
T7C0.0450
T8C0.1250
%
T1
X0364Y00465
X0364Y00565
X0369Y00515
T2
X02715Y00585
X02905Y00585
T3
X018358Y002055
X018358Y003055
X02085Y0034
X01985Y0034
T4
X0374Y01185
X0374Y01085
X0374Y00985
X002Y01225
X003Y01225
X004Y01225
X005Y01225
X006Y01225
X007Y01225
X024108Y007805
X024108Y009805
X03085Y0036
X02885Y0036
X03535Y00885
X03535Y01085
X0364Y00685
X0364Y00885
X031608Y005405
X033608Y005405
X031608Y004405
X033608Y004405
X0038Y00505
X03165Y009
X03365Y009
X03265Y00665
X0327Y0105
X0038Y00675
T5
X0102Y00485
X0102Y00585
X00205Y00505
X00205Y00605
T6
X01605Y00775
X02005Y00775
X014569Y007802
X014576Y008481
X014568Y009155
X014567Y009843
X014566Y010502
X033858Y012055
X024858Y012055
X023858Y012055
X022858Y012055
X021858Y012055
X020858Y012055
X019858Y012055
X019858Y002055
X020858Y002055
X021858Y002055
X022858Y002055
X032858Y012055
X023858Y002055
X024858Y002055
X025858Y002055
X026858Y002055
X027858Y002055
X028858Y002055
X029858Y002055
X030858Y002055
X031858Y002055
X032858Y002055
X031858Y012055
X033858Y002055
X030858Y012055
X029858Y012055
X028858Y012055
X027858Y012055
X026858Y012055
X025858Y012055
X005709Y009843
X00565Y00435
T7
X003Y01025
X003Y00825
X016Y0021
X001Y0021
T8
X007585Y009163
M30
