%FSTAX24Y24*%
%MOIN*%
%IN ServoBoardSlim.GTO *%
%ADD10C,0.0086*%
%ADD11C,0.0100*%
D11*X029175Y007363D02*G01X027981Y007365D01*Y007829D01*X02798Y00797D02*
X029187D01*X02919Y007843D02*Y007376D01*X027983Y007825D02*
X027984Y007974D01*X029189Y007844D02*X029187Y007972D01*
X032865Y007337D02*X031671Y007339D01*Y007803D01*X03167Y007944D02*
X032877D01*X032879Y007817D02*Y00735D01*X031672Y007799D02*
X031674Y007948D01*X032879Y007818D02*X032877Y007946D01*D10*
X030202Y009082D02*Y009596D01*X030245D02*X030159D01*X030245Y009082D02*
X030159D01*X029602Y009511D02*X029687Y009596D01*X029859D01*
X029945Y009511D01*Y009168D01*X029859Y009082D01*X029687D01*
X029602Y009168D01*X02943Y009082D02*Y009596D01*X029173D01*
X029087Y009511D01*Y009425D01*X029173Y009339D01*X029087Y009082D01*
X029173Y009339D02*X02943D01*X028916Y009596D02*X028573Y009082D01*
X028916D02*X028573Y009596D01*X030202Y009082D02*Y009596D01*X030245D02*
X030159D01*X030245Y009082D02*X030159D01*X029602Y009511D02*
X029687Y009596D01*X029859D01*X029945Y009511D01*Y009168D01*
X029859Y009082D01*X029687D01*X029602Y009168D01*X02943Y009082D02*
Y009596D01*X029173D01*X029087Y009511D01*Y009425D01*X029173Y009339D01*
X029087Y009082D01*X029173Y009339D02*X02943D01*X028916Y009596D02*
X028573Y009082D01*X028916D02*X028573Y009596D01*X033891Y009056D02*
Y00957D01*X033934D02*X033849D01*X033934Y009056D02*X033849D01*
X033291Y009485D02*X033377Y00957D01*X033549D01*X033634Y009485D01*
Y009142D01*X033549Y009056D01*X033377D01*X033291Y009142D01*
X032949Y009056D02*Y00957D01*X032777D01*X032949D02*X03312D01*X032606D02*
X032263Y009056D01*X032606D02*X032263Y00957D01*X033891Y009056D02*
Y00957D01*X033934D02*X033849D01*X033934Y009056D02*X033849D01*
X033291Y009485D02*X033377Y00957D01*X033549D01*X033634Y009485D01*
Y009142D01*X033549Y009056D01*X033377D01*X033291Y009142D01*
X032949Y009056D02*Y00957D01*X032777D01*X032949D02*X03312D01*X032606D02*
X032263Y009056D01*X032606D02*X032263Y00957D01*
M02*