%FSTAX24Y24*%
%MOIN*%
%IN ServoBoardSlim.GBO *%
%ADD10C,0.0080*%
%ADD11C,0.0086*%
%ADD12C,0.0100*%
%ADD13C,0.0120*%
D13*X017858Y001555D02*G01X018858D01*X017858Y003555D02*Y001555D01*
Y003555D02*X018858D01*Y001555D01*X02135Y0029D02*Y0039D01*
X01935Y0029D02*X02135D01*X01935D02*Y0039D01*X02135D01*D12*
X0102Y00435D02*X0103Y00436D01*X0104Y00438D01*X0105Y0044D01*
X0106Y00444D01*X01069Y00449D01*X01078Y00455D01*X01086Y00461D01*
X01094Y00469D01*X011Y00477D01*X01106Y00485D01*X01111Y00495D01*
X01115Y00505D01*X01117Y00515D01*X01119Y00525D01*Y00535D01*
X0102Y00635D02*X0103Y00634D01*X0104Y00632D01*X0105Y0063D01*
X0106Y00626D01*X01069Y00621D01*X01078Y00615D01*X01086Y00609D01*
X01094Y00601D01*X011Y00593D01*X01106Y00585D01*X01111Y00575D01*
X01115Y00565D01*X01117Y00555D01*X01119Y00545D01*Y00535D01*
X0102Y00635D02*X0101Y00634D01*X01Y00632D01*X0099Y0063D01*
X0098Y00626D01*X00971Y00621D01*X00962Y00615D01*X00954Y00609D01*
X00946Y00601D01*X0094Y00593D01*X00934Y00585D01*X00929Y00575D01*
X00925Y00565D01*X00923Y00555D01*X00921Y00545D01*Y00535D01*
X0102Y00435D02*X0101Y00436D01*X01Y00438D01*X0099Y0044D01*
X0098Y00444D01*X00971Y00449D01*X00962Y00455D01*X00954Y00461D01*
X00946Y00469D01*X0094Y00477D01*X00934Y00485D01*X00929Y00495D01*
X00925Y00505D01*X00923Y00515D01*X00921Y00525D01*Y00535D01*D13*
X00995Y00385D02*X01045D01*X0102Y0041D02*Y0036D01*D10*X0369Y01235D02*
Y00935D01*X0379D01*Y01235D01*X0369D01*Y01135D02*X0379D01*
X0015Y01175D02*X0075D01*Y01275D01*X0015D01*Y01175D01*X0025D02*
Y01275D01*D13*X005Y01125D02*Y00725D01*X001Y01125D02*X005D01*X001D02*
Y00725D01*X005D01*D12*X00205Y00455D02*X00215Y00456D01*X00225Y00458D01*
X00235Y0046D01*X00245Y00464D01*X00254Y00469D01*X00263Y00475D01*
X00271Y00481D01*X00279Y00489D01*X00285Y00497D01*X00291Y00505D01*
X00296Y00515D01*X003Y00525D01*X00302Y00535D01*X00304Y00545D01*
Y00555D01*X00205Y00655D02*X00215Y00654D01*X00225Y00652D01*
X00235Y0065D01*X00245Y00646D01*X00254Y00641D01*X00263Y00635D01*
X00271Y00629D01*X00279Y00621D01*X00285Y00613D01*X00291Y00605D01*
X00296Y00595D01*X003Y00585D01*X00302Y00575D01*X00304Y00565D01*
Y00555D01*X00205Y00655D02*X00195Y00654D01*X00185Y00652D01*
X00175Y0065D01*X00165Y00646D01*X00156Y00641D01*X00147Y00635D01*
X00139Y00629D01*X00131Y00621D01*X00125Y00613D01*X00119Y00605D01*
X00114Y00595D01*X0011Y00585D01*X00108Y00575D01*X00106Y00565D01*
Y00555D01*X00205Y00455D02*X00195Y00456D01*X00185Y00458D01*
X00175Y0046D01*X00165Y00464D01*X00156Y00469D01*X00147Y00475D01*
X00139Y00481D01*X00131Y00489D01*X00125Y00497D01*X00119Y00505D01*
X00114Y00515D01*X0011Y00525D01*X00108Y00535D01*X00106Y00545D01*
Y00555D01*D13*X0018Y00405D02*X0023D01*X00205Y0043D02*Y0038D01*
X01725Y00825D02*Y00725D01*X01935D02*X01675D01*Y00825D01*X01935D01*
Y00725D01*X02005Y00775D02*X01935D01*X01675D02*X01605D01*D12*
X007589Y009956D02*X007509Y009946D01*X007429Y009936D01*
X007349Y009916D01*X007269Y009886D01*X007199Y009846D01*
X007119Y009796D01*X007059Y009746D01*X006999Y009686D01*
X006949Y009626D01*X006899Y009556D01*X006859Y009476D01*
X006829Y009396D01*X006809Y009316D01*X006799Y009236D01*Y009156D01*
X007589Y008356D02*X007509Y008366D01*X007429Y008376D01*
X007349Y008396D01*X007269Y008426D01*X007199Y008466D01*
X007119Y008516D01*X007059Y008566D01*X006999Y008626D01*
X006949Y008686D01*X006899Y008756D01*X006859Y008836D01*
X006829Y008916D01*X006809Y008996D01*X006799Y009076D01*Y009156D01*
X007589Y008356D02*X007669Y008366D01*X007749Y008376D01*
X007829Y008396D01*X007909Y008426D01*X007979Y008466D01*
X008059Y008516D01*X008119Y008566D01*X008179Y008626D01*
X008229Y008686D01*X008279Y008756D01*X008319Y008836D01*
X008349Y008916D01*X008369Y008996D01*X008379Y009076D01*Y009156D01*
X007589Y009956D02*X007669Y009946D01*X007749Y009936D01*
X007829Y009916D01*X007909Y009886D01*X007979Y009846D01*
X008059Y009796D01*X008119Y009746D01*X008179Y009686D01*
X008229Y009626D01*X008279Y009556D01*X008319Y009476D01*
X008349Y009396D01*X008369Y009316D01*X008379Y009236D01*Y009156D01*D13*
X007089Y007156D02*X006589D01*X007089D02*Y007656D01*X008089D01*
Y007156D01*X012589Y011156D02*X008089D01*Y010656D01*X007089D01*
Y011156D01*X006589D01*X014588Y007803D02*X012588D01*X014605Y008471D02*
X012605D01*X014598Y010492D02*X012598D01*X006589Y007156D02*Y011156D01*
X012589D02*Y007156D01*X014597Y009138D02*X012597D01*X014601Y009824D02*
X012601D01*X008089Y007156D02*X012589D01*D10*X034358Y007305D02*
X034338Y007295D01*X034308D01*X034288Y007285D01*X034258Y007275D01*
X034238Y007265D01*X034218Y007255D01*X034198Y007235D01*
X034178Y007215D01*X034158Y007195D01*X034148Y007175D01*
X034138Y007155D01*X034128Y007125D01*X034118Y007105D01*Y007075D01*
Y007055D01*X034358Y006805D02*X034338Y006815D01*X034308D01*
X034288Y006825D01*X034258Y006835D01*X034238Y006845D01*
X034218Y006855D01*X034198Y006875D01*X034178Y006895D01*
X034158Y006915D01*X034148Y006935D01*X034138Y006955D01*
X034128Y006985D01*X034118Y007005D01*Y007035D01*Y007055D01*
X034358Y009555D02*Y007305D01*Y006805D02*Y004555D01*X020358D01*
Y009555D01*X034358D01*D13*X013638Y0021D02*X014425D01*X014031Y001706D02*
Y002494D01*X00222Y000525D02*X014819D01*X00222D02*Y003675D01*D12*
X014819D01*Y000525D01*D10*X036Y00425D02*Y00605D01*X0368D01*
X0373Y00555D01*Y00475D01*X0368Y00425D01*X036D01*D13*X024108Y007805D02*
Y008305D01*X024358Y009305D02*X024108D01*X024408Y008305D02*Y009305D01*
Y008305D02*X023808D01*Y009305D01*X024108D02*X023858D01*X024108D02*
Y009805D01*X03085Y0036D02*X03035D01*X02935Y00385D02*Y0036D01*
X03035Y0039D02*X02935D01*X03035D02*Y0033D01*X02935D01*Y0036D02*
Y00335D01*Y0036D02*X02885D01*X03535Y00885D02*Y00935D01*X0356Y01035D02*
X03535D01*X03565Y00935D02*Y01035D01*Y00935D02*X03505D01*Y01035D01*
X03535D02*X0351D01*X03535D02*Y01085D01*X0364Y00685D02*Y00735D01*
X03665Y00835D02*X0364D01*X0367Y00735D02*Y00835D01*Y00735D02*X0361D01*
Y00835D01*X0364D02*X03615D01*X0364D02*Y00885D01*X031608Y005405D02*
X032108D01*X033108Y005155D02*Y005405D01*X032108Y005105D02*X033108D01*
X032108D02*Y005705D01*X033108D01*Y005405D02*Y005655D01*Y005405D02*
X033608D01*X031608Y004405D02*X032108D01*X033108Y004155D02*Y004405D01*
X032108Y004105D02*X033108D01*X032108D02*Y004705D01*X033108D01*
Y004405D02*Y004655D01*Y004405D02*X033608D01*D11*X018569Y004473D02*
X018655Y004559D01*Y00473D01*X018569Y004816D01*X018226D01*
X018141Y00473D01*Y004559D01*X018226Y004473D01*X018569Y004216D02*
X018655Y00413D01*X018141D01*Y004045D01*Y00413D02*Y004216D01*
X018226Y003787D02*X018141Y003702D01*Y00353D01*X018226Y003445D01*
X018569D01*X018655Y00353D01*Y003702D01*X018569Y003787D01*X018441D01*
X018355Y003702D01*Y00353D01*X018441Y003445D01*X022129Y003629D02*
X022043Y003714D01*X021871D01*X021786Y003629D01*Y003286D01*
X021871Y0032D01*X022043D01*X022129Y003286D01*X0223Y003629D02*
X022386Y003714D01*X022557D01*X022643Y003629D01*Y003543D01*
X022557Y003457D01*X0223Y003286D01*Y0032D01*X022643D01*
X023157Y003629D02*X023071Y003714D01*X0229D01*X022814Y003629D01*
Y003286D01*X0229Y0032D01*X023071D01*X023157Y003286D01*Y003629D01*
X022986Y003543D02*Y003371D01*X009167Y00639D02*X009252Y006475D01*
Y006647D01*X009167Y006732D01*X008824D01*X008738Y006647D01*Y006475D01*
X008824Y00639D01*X008738Y006132D02*X009252D01*Y006175D02*Y00609D01*
X008738Y006175D02*Y00609D01*Y005875D02*X009252D01*X008738Y005532D01*
X009252D01*X037229Y012979D02*X037143Y013064D01*X036971D01*
X036886Y012979D01*Y012636D01*X036971Y01255D01*X037143D01*
X037229Y012636D01*X0374Y01255D02*Y013064D01*X037743Y01255D01*
Y013064D01*X038257D02*X037914D01*Y012807D01*X038Y012893D01*X038171D01*
X038257Y012807D01*Y012636D01*X038171Y01255D01*X038D01*
X037914Y012636D01*X008279Y012429D02*X008193Y012514D01*X008021D01*
X007936Y012429D01*Y012086D01*X008021Y012D01*X008193D01*
X008279Y012086D01*X00845Y012D02*Y012514D01*X008793Y012D01*Y012514D01*
X009307D02*X008964D01*Y012257D01*Y012D01*X009307D01*X008964Y012257D02*
X009221D01*X009479Y012D02*Y012514D01*X00965Y012257D01*
X009821Y012514D01*Y012D01*X010336Y012429D02*X01025Y012514D01*
X010079D01*X009993Y012429D01*Y012086D01*X010079Y012D01*X01025D01*
X010336Y012086D01*Y012214D01*X01025D01*X000779Y010121D02*
X000864Y010207D01*Y010379D01*X000779Y010464D01*X000436D01*
X00035Y010379D01*Y010207D01*X000436Y010121D01*X00035Y00995D02*
X000864D01*X00035Y009607D01*X000864D01*X00035Y009436D02*X000864D01*
Y009179D01*X000779Y009093D01*X000693D01*X000607Y009179D01*Y009436D01*
X000864Y008921D02*X00035Y008836D01*X000864Y00875D01*X00035Y008664D01*
X000864Y008579D01*X00035Y008407D02*X000864D01*Y00815D01*
X000779Y008064D01*X000693D01*X000607Y00815D01*X00035Y008064D01*
X000607Y00815D02*Y008407D01*X001073Y005673D02*X000987Y005759D01*
X000816D01*X00073Y005673D01*Y00533D01*X000816Y005244D01*X000987D01*
X001073Y00533D01*X001587Y005673D02*X001501Y005759D01*X00133D01*
X001244Y005673D01*Y00533D01*X00133Y005244D01*X001501D01*
X001587Y00533D01*Y005673D01*X001758Y005759D02*Y00533D01*
X001844Y005244D01*X002016D01*X002101Y00533D01*Y005759D01*
X002444Y005244D02*Y005759D01*X002616D01*X002444D02*X002273D01*
X018221Y007521D02*X018307Y007436D01*X018564D01*Y00795D01*X018307D01*
X018221Y007864D01*Y007521D01*X017964D02*X017879Y007436D01*Y00795D01*
X017793D01*X017879D02*X017964D01*X009566Y007873D02*X009052D01*
Y00783D02*Y007916D01*X009566Y00783D02*Y007916D01*X009138Y008473D02*
X009052Y008387D01*Y008216D01*X009138Y00813D01*X009481D01*
X009566Y008216D01*Y008387D01*X009481Y008473D01*X009138Y008645D02*
X009052Y00873D01*Y008902D01*X009138Y008987D01*X009223D01*
X009309Y008902D01*X009481Y008645D01*X009566D01*Y008987D01*
X009052Y009502D02*Y009159D01*X009309D01*X009223Y009245D01*Y009416D01*
X009309Y009502D01*X009481D01*X009566Y009416D01*Y009245D01*
X009481Y009159D01*X009052Y009673D02*Y010016D01*X009566Y009759D01*
X009052Y01053D02*Y010187D01*X009309D01*X009223Y010273D01*Y010445D01*
X009309Y01053D01*X009481D01*X009566Y010445D01*Y010273D01*
X009481Y010187D01*X023221Y00595D02*Y006464D01*X023179D02*X023264D01*
X023179Y00595D02*X023264D01*X023821Y006379D02*X023736Y006464D01*
X023564D01*X023479Y006379D01*Y006036D01*X023564Y00595D01*X023736D01*
X023821Y006036D01*X024336Y006464D02*X023993D01*Y006207D01*Y00595D01*
X024336D01*X023993Y006207D02*X02425D01*X02485Y006379D02*
X024764Y006464D01*X024593D01*X024507Y006379D01*Y006293D01*
X024593Y006207D01*X024764D01*X02485Y006121D01*Y006036D01*
X024764Y00595D01*X024593D01*X024507Y006036D01*X025021Y00595D02*
Y006464D01*X025279D01*X025364Y006379D01*Y006293D01*X025279Y006207D01*
X025021D01*X025536Y006379D02*X025621Y006464D01*X025793D01*
X025879Y006379D01*Y006293D01*X025793Y006207D01*X025879Y006121D01*
Y006036D01*X025793Y00595D01*X025621D01*X025536Y006036D01*
X025793Y006207D02*X025707D01*X02605Y006379D02*X026136Y006464D01*
X026307D01*X026393Y006379D01*Y006293D01*X026307Y006207D01*
X02605Y006036D01*Y00595D01*X026393D01*X-000014Y006374D02*Y00586D01*
X000329D01*X000586Y006289D02*X000671Y006374D01*Y00586D01*X000757D01*
X000671D02*X000586D01*X035756Y004473D02*X035414D01*X035328Y004387D01*
Y004216D01*X035414Y00413D01*X035756D01*X035842Y004216D01*Y004387D01*
X035756Y004473D01*X035671Y004302D02*X035842Y004473D01*X035414Y00473D02*
X035328Y004816D01*X035842D01*Y004902D01*Y004816D02*Y00473D01*
X024636Y009D02*Y009514D01*X024893D01*X024979Y009429D01*Y009343D01*
X024893Y009257D01*X024979Y009D01*X024893Y009257D02*X024636D01*
X025236Y009429D02*X025321Y009514D01*Y009D01*X025407D01*X025321D02*
X025236D01*X025664Y009086D02*X02575Y009D01*X025921D01*
X026007Y009086D01*Y009429D01*X025921Y009514D01*X02575D01*
X025664Y009429D01*Y0093D01*X02575Y009214D01*X025921D01*X026007Y0093D01*
X028377Y004095D02*Y00461D01*X028635D01*X02872Y004524D01*Y004438D01*
X028635Y004352D01*X02872Y004095D01*X028635Y004352D02*X028377D01*
X028892Y004524D02*X028977Y00461D01*X029149D01*X029235Y004524D01*
Y004438D01*X029149Y004352D01*X028892Y004181D01*Y004095D01*X029235D01*
X029749Y004524D02*X029663Y00461D01*X029492D01*X029406Y004524D01*
Y004181D01*X029492Y004095D01*X029663D01*X029749Y004181D01*Y004524D01*
X029577Y004438D02*Y004267D01*X036273Y009062D02*X035759D01*Y009319D01*
X035845Y009405D01*X03593D01*X036016Y009319D01*X036273Y009405D01*
X036016Y009319D02*Y009062D01*X035845Y009576D02*X035759Y009662D01*
Y009834D01*X035845Y009919D01*X03593D01*X036016Y009834D01*
X036188Y009576D01*X036273D01*Y009919D01*X035845Y010176D02*
X035759Y010262D01*X036273D01*Y010348D01*Y010262D02*Y010176D01*
X035698Y007281D02*X035184D01*Y007538D01*X03527Y007623D01*X035356D01*
X035441Y007538D01*X035698Y007623D01*X035441Y007538D02*Y007281D01*
X03527Y007795D02*X035184Y007881D01*Y008052D01*X03527Y008138D01*
X035356D01*X035441Y008052D01*X035613Y007795D01*X035698D01*Y008138D01*
X03527Y008309D02*X035184Y008395D01*Y008566D01*X03527Y008652D01*
X035356D01*X035441Y008566D01*X035613Y008309D01*X035698D01*Y008652D01*
X030136Y0059D02*Y006414D01*X030393D01*X030479Y006329D01*Y006243D01*
X030393Y006157D01*X030479Y0059D01*X030393Y006157D02*X030136D01*
X03065Y006329D02*X030736Y006414D01*X030907D01*X030993Y006329D01*
Y006243D01*X030907Y006157D01*X03065Y005986D01*Y0059D01*X030993D01*
X031164Y006329D02*X03125Y006414D01*X031421D01*X031507Y006329D01*
Y006243D01*X031421Y006157D01*X031507Y006071D01*Y005986D01*
X031421Y0059D01*X03125D01*X031164Y005986D01*X031421Y006157D02*
X031336D01*X030036Y0043D02*Y004814D01*X030293D01*X030379Y004729D01*
Y004643D01*X030293Y004557D01*X030379Y0043D01*X030293Y004557D02*
X030036D01*X03055Y004729D02*X030636Y004814D01*X030807D01*
X030893Y004729D01*Y004643D01*X030807Y004557D01*X03055Y004386D01*
Y0043D01*X030893D01*X031321D02*Y004814D01*X031064Y004514D01*X031407D01*
M02*